<svg width="791" height="778" viewBox="0 0 791 778" fill="none" xmlns="http://www.w3.org/2000/svg">
<path fill-rule="evenodd" clip-rule="evenodd" d="M395.827 0C176.945 0 0 178.291 0 398.861C0 575.175 113.375 724.42 270.656 777.243C290.32 781.214 297.523 768.661 297.523 758.101C297.523 748.854 296.874 717.159 296.874 684.135C186.765 707.912 163.836 636.588 163.836 636.588C146.14 590.362 119.921 578.481 119.921 578.481C83.8826 554.047 122.547 554.047 122.547 554.047C162.523 556.689 183.5 594.989 183.5 594.989C218.882 655.738 275.898 638.573 298.835 628.005C302.109 602.25 312.601 584.421 323.742 574.518C235.921 565.271 143.523 530.934 143.523 377.726C143.523 334.142 159.242 298.483 184.148 270.751C180.218 260.848 166.453 219.898 188.086 165.089C188.086 165.089 221.507 154.522 296.866 206.031C329.13 197.3 362.403 192.859 395.827 192.822C429.249 192.822 463.319 197.449 494.78 206.031C570.147 154.522 603.569 165.089 603.569 165.089C625.202 219.898 611.428 260.848 607.498 270.751C633.061 298.483 648.131 334.142 648.131 377.726C648.131 530.934 555.733 564.607 467.257 574.518C481.679 587.063 494.124 610.833 494.124 648.477C494.124 701.964 493.476 744.891 493.476 758.093C493.476 768.661 500.687 781.214 520.343 777.251C677.623 724.412 790.998 575.175 790.998 398.861C791.646 178.291 614.053 0 395.827 0Z" fill="#FDCB72" fill-opacity="0.05"/>
</svg>
